<?xml version="1.0" encoding="iso-8859-1"?>
<!-- Generator: Adobe Illustrator 19.0.0, SVG Export Plug-In . SVG Version: 6.00 Build 0)  -->
<svg version="1.1" id="Capa_1" xmlns="http://www.w3.org/2000/svg" xmlns:xlink="http://www.w3.org/1999/xlink" x="0px" y="0px"
	 viewBox="0 0 50.773 50.773" style="enable-background:new 0 0 50.773 50.773;" xml:space="preserve">
<g>
	<path d="M50.773,14.748c0-0.552-0.448-1-1-1s-1,0.448-1,1v11H12.807v-8.39c0-0.391-0.228-0.747-0.584-0.909
		c-0.354-0.163-0.773-0.104-1.07,0.152L0.346,25.935C0.126,26.125,0,26.401,0,26.692s0.126,0.567,0.346,0.757l10.807,9.333
		c0.186,0.16,0.418,0.243,0.654,0.243c0.141,0,0.283-0.03,0.416-0.091c0.356-0.163,0.584-0.518,0.584-0.909v-8.277h37.966V14.748z
		 M2.53,26.692l8.277-7.148v7.038c-0.01,0.056-0.034,0.108-0.034,0.167s0.024,0.111,0.034,0.167v6.925L2.53,26.692z"/>
</g>
<g>
</g>
<g>
</g>
<g>
</g>
<g>
</g>
<g>
</g>
<g>
</g>
<g>
</g>
<g>
</g>
<g>
</g>
<g>
</g>
<g>
</g>
<g>
</g>
<g>
</g>
<g>
</g>
<g>
</g>
</svg>
